<svg xmlns="http://www.w3.org/2000/svg" xmlns:xlink="http://www.w3.org/1999/xlink" version="1.1" x="0px" y="0px" viewBox="0 0 100 100" enable-background="new 0 0 100 100" xml:space="preserve"><path d="M93.146,53.175c2.949-1.872,3.821-6.621,4.664-8.872l0.024-0.169l-0.17,0.017c-4.612,0.469-7.021,2.95-8.284,4.802  c0.308-1.953,0.468-3.929,0.468-5.919c0-0.024-0.001-0.047-0.001-0.071l0.02,0.027c0,0,2.312-0.332,4.461-2.856  c2.264-2.66,1.694-7.454,1.835-9.854l-0.027-0.169l-0.157,0.067c-4.351,1.846-5.896,5.012-6.531,7.159  c-0.242-1.709-0.596-3.394-1.051-5.045c0.445-0.238,2.202-1.305,3.388-3.925c1.438-3.183-0.437-7.632-0.966-9.977l-0.072-0.155  l-0.133,0.107c-3.421,2.776-4.181,5.979-4.282,8.215c-0.536-1.193-1.13-2.36-1.782-3.499l0.024,0.011c0,0,1.777-1.425,2.328-4.61  c0.581-3.356-2.275-7.098-3.348-9.182l-0.106-0.128l-0.099,0.134c-2.648,3.588-2.477,6.911-1.983,9.04  c-0.399-0.513-0.813-1.018-1.24-1.514c-0.071-1.121-0.642-2.509-1.95-3.98c-1.437-1.618-4.195-3.92-9.004-3.632l-0.166,0.01  l0.051,0.159c1.163,2.035,2.745,6.469,5.876,7.809c1.76,0.753,3.229,0.81,4.141,0.731c0.478,0.559,0.938,1.13,1.381,1.712  c-0.042-0.017-0.081-0.033-0.122-0.049c-2.021-0.772-5.531-1.543-9.664,0.929l-0.144,0.085l0.117,0.118  c1.971,1.269,5.419,4.474,8.815,4.22c1.728-0.129,2.98-0.656,3.776-1.119c0.786,1.371,1.484,2.787,2.095,4.239  c-0.113-0.087-0.231-0.175-0.353-0.261c-1.809-1.286-5.096-2.953-9.835-1.561l-0.164,0.048l0.087,0.147  c1.63,1.767,4.231,5.834,7.668,6.454c1.856,0.335,3.302,0.088,4.204-0.188c0.455,1.647,0.804,3.329,1.038,5.036  c-0.009-0.011-0.016-0.021-0.024-0.032c-1.382-1.736-4.079-4.248-9.02-4.222l-0.17,0.001l0.042,0.166  c1.077,2.149,2.451,6.778,5.582,8.325c1.611,0.797,3.008,0.981,3.953,0.984c0,0.032,0.001,0.064,0.001,0.096  c0,2.039-0.171,4.064-0.508,6.063c-0.019-0.049-0.035-0.098-0.055-0.148c-0.807-2.068-2.642-5.264-7.368-6.698l-0.163-0.05  l-0.009,0.17c0.395,2.372,0.339,7.2,2.873,9.604c1.321,1.253,2.618,1.841,3.521,2.118c-0.572,1.825-1.288,3.616-2.138,5.365  c-0.003-0.17-0.009-0.344-0.021-0.523c-0.136-2.215-0.903-5.818-4.965-8.631l-0.142-0.097l-0.06,0.16  c-0.35,2.379-1.88,6.958-0.203,10.021c0.998,1.822,2.232,2.814,3.016,3.301c-1.044,1.63-2.214,3.212-3.504,4.734  c0.032-0.146,0.062-0.294,0.089-0.446c0.407-2.275,0.518-6.111-2.901-9.956l-0.118-0.133l-0.101,0.146  c-0.938,2.32-3.614,6.578-2.67,10.091c0.546,2.031,1.509,3.32,2.18,4.021c-0.188,0.178-0.374,0.356-0.564,0.532  c-1.361,1.253-2.711,2.37-4.043,3.374c0.043-0.107,0.087-0.214,0.127-0.326c0.845-2.292,1.667-6.265-1.181-10.897l-0.099-0.161  l-0.133,0.135c-1.405,2.242-4.976,6.18-4.642,10.01c0.173,1.992,0.81,3.421,1.351,4.31c-1.962,1.158-3.866,2.094-5.695,2.87  c0.175-0.195,0.351-0.402,0.524-0.626c1.399-1.802,3.255-5.104,2.031-10.033l-0.042-0.17l-0.155,0.082  c-1.886,1.598-6.177,4.091-6.964,7.595c-0.509,2.264-0.136,3.958,0.154,4.812c-2.058,0.672-3.977,1.184-5.719,1.649  c-0.014,0.003-0.028,0.007-0.042,0.01c-0.014-0.003-0.028-0.007-0.042-0.01c-1.743-0.466-3.662-0.978-5.719-1.649  c0.29-0.854,0.662-2.549,0.154-4.812c-0.787-3.504-5.079-5.997-6.964-7.595l-0.156-0.082l-0.042,0.17  c-1.224,4.929,0.631,8.231,2.032,10.033c0.173,0.224,0.349,0.431,0.524,0.626c-1.83-0.776-3.734-1.712-5.696-2.87  c0.541-0.889,1.177-2.317,1.35-4.31c0.334-3.83-3.236-7.768-4.642-10.01l-0.131-0.135l-0.098,0.161  c-2.848,4.633-2.026,8.605-1.183,10.897c0.042,0.112,0.085,0.219,0.128,0.325c-1.332-1.003-2.681-2.12-4.042-3.373  c-0.191-0.176-0.378-0.354-0.566-0.532c0.671-0.7,1.635-1.989,2.18-4.021c0.944-3.513-1.731-7.771-2.67-10.091l-0.101-0.146  L24.2,58.021c-3.419,3.845-3.31,7.681-2.902,9.956c0.027,0.152,0.058,0.301,0.089,0.446c-1.29-1.522-2.459-3.104-3.503-4.734  c0.783-0.486,2.017-1.479,3.015-3.301c1.678-3.063,0.148-7.643-0.203-10.021l-0.06-0.16l-0.14,0.097  c-4.062,2.812-4.83,6.416-4.966,8.631c-0.011,0.18-0.017,0.354-0.02,0.523c-0.85-1.749-1.566-3.54-2.139-5.365  c0.903-0.277,2.2-0.865,3.521-2.118c2.535-2.404,2.479-7.232,2.873-9.604l-0.008-0.17l-0.164,0.05  c-4.728,1.435-6.561,4.63-7.368,6.698c-0.02,0.05-0.036,0.099-0.055,0.148c-0.336-2-0.508-4.025-0.508-6.064  c0-0.032,0.001-0.064,0.001-0.096c0.944-0.003,2.341-0.187,3.953-0.984c3.131-1.547,4.504-6.176,5.583-8.325l0.042-0.166  l-0.171-0.001c-4.94-0.026-7.636,2.486-9.019,4.222c-0.008,0.011-0.016,0.022-0.024,0.033c0.234-1.707,0.582-3.389,1.037-5.037  c0.903,0.276,2.348,0.523,4.205,0.188c3.438-0.62,6.039-4.688,7.669-6.454l0.086-0.147l-0.164-0.048  c-4.74-1.393-8.026,0.274-9.835,1.561c-0.122,0.086-0.239,0.174-0.353,0.261c0.61-1.452,1.309-2.868,2.095-4.239  c0.796,0.462,2.049,0.99,3.776,1.119c3.396,0.254,6.845-2.951,8.815-4.22l0.118-0.118l-0.143-0.085  c-4.134-2.473-7.644-1.702-9.664-0.929c-0.042,0.016-0.081,0.033-0.123,0.049c0.443-0.582,0.902-1.153,1.38-1.712  c0.912,0.079,2.382,0.022,4.141-0.731c3.131-1.34,4.713-5.774,5.876-7.809l0.051-0.159l-0.167-0.01  c-4.808-0.288-7.567,2.014-9.004,3.632c-1.308,1.471-1.877,2.859-1.949,3.98c-0.427,0.496-0.841,1.001-1.241,1.514  c0.495-2.129,0.666-5.452-1.982-9.04l-0.099-0.134l-0.106,0.128c-1.073,2.084-3.929,5.826-3.348,9.182  c0.552,3.185,2.328,4.61,2.328,4.61l0.025-0.011c-0.653,1.138-1.247,2.306-1.782,3.499c-0.101-2.235-0.861-5.439-4.282-8.215  l-0.132-0.107L9.182,18.39c-0.53,2.345-2.404,6.794-0.965,9.977c1.186,2.62,2.942,3.688,3.388,3.925  c-0.456,1.651-0.809,3.336-1.051,5.045c-0.636-2.146-2.182-5.313-6.533-7.159l-0.157-0.067L3.837,30.28  c0.14,2.4-0.43,7.194,1.834,9.854c2.149,2.525,4.46,2.856,4.46,2.856l0.021-0.027c0,0.024-0.001,0.047-0.001,0.071  c0,1.99,0.16,3.965,0.467,5.918c-1.262-1.852-3.672-4.332-8.284-4.801l-0.17-0.017l0.024,0.169c0.843,2.251,1.715,7,4.664,8.872  c2.686,1.705,4.912,1.438,5.088,1.413c0.495,1.571,1.092,3.118,1.785,4.636c-1.802-1.326-4.772-2.747-9.082-1.83l-0.167,0.035  l0.075,0.154c1.491,1.885,3.774,6.139,7.154,7.019c2.412,0.628,4.188,0.188,4.921-0.068c0.935,1.458,1.964,2.878,3.089,4.253  c-2.141-0.933-5.566-1.733-9.813,0.307l-0.161,0.078l0.114,0.137c1.973,1.541,5.33,5.284,8.967,5.344  c2.779,0.045,4.516-0.969,5.089-1.365c0.179,0.168,0.355,0.337,0.537,0.505c1.251,1.151,2.491,2.191,3.718,3.137  c-2.385-0.622-6.229-0.959-10.432,2.064l-0.152,0.109l0.144,0.121c2.337,1.239,6.522,4.516,10.318,3.907  c3.604-0.581,5.237-2.564,5.237-2.564l-0.046-0.112c-0.014-0.035-0.031-0.068-0.046-0.104c1.618,0.964,3.197,1.777,4.729,2.477  c-2.281,0.229-5.458,1.187-8.103,4.743l-0.104,0.142l0.162,0.067c2.432,0.441,7.083,2.173,10.29,0.556  c2.121-1.07,3.194-2.475,3.652-3.229c1.15,0.374,2.259,0.7,3.317,0.996c-3.044,0.89-5.489,1.872-7.147,3.748l1.132,1.001  c1.79-2.025,4.92-2.915,8.881-3.974c3.961,1.059,7.091,1.948,8.881,3.974l1.133-1.001c-1.658-1.876-4.104-2.858-7.147-3.748  c1.059-0.296,2.168-0.622,3.318-0.996c0.456,0.754,1.531,2.158,3.651,3.229c3.206,1.617,7.858-0.114,10.289-0.556l0.162-0.067  l-0.104-0.142c-2.646-3.557-5.822-4.515-8.104-4.743c1.531-0.699,3.111-1.513,4.728-2.476c-0.015,0.034-0.032,0.067-0.046,0.103  l-0.045,0.112c0,0,1.633,1.983,5.236,2.564c3.796,0.608,7.981-2.668,10.318-3.907l0.145-0.121l-0.153-0.109  c-4.201-3.023-8.046-2.687-10.431-2.064c1.226-0.945,2.467-1.985,3.718-3.137c0.181-0.168,0.357-0.337,0.536-0.505  c0.573,0.396,2.311,1.41,5.089,1.365c3.637-0.06,6.994-3.803,8.967-5.344l0.114-0.137l-0.16-0.078  c-4.248-2.041-7.673-1.239-9.814-0.307c1.126-1.375,2.155-2.795,3.09-4.253c0.734,0.257,2.509,0.696,4.921,0.068  c3.381-0.88,5.663-5.134,7.155-7.019l0.074-0.154l-0.167-0.035c-4.31-0.917-7.279,0.504-9.081,1.83  c0.692-1.518,1.289-3.064,1.784-4.636C88.235,54.612,90.462,54.879,93.146,53.175z M23.856,61.577  c-0.297,4.328-0.406,7.138-0.648,8.873c-0.033-0.034-0.067-0.069-0.099-0.104C23.042,68.83,22.953,64.545,23.856,61.577z   M19.368,53.545c-1.281,4.041-2.024,6.661-2.649,8.216c-0.019-0.033-0.039-0.066-0.057-0.099  C16.918,60.335,17.812,56.176,19.368,53.545z M17.529,44.991c-2.291,3.223-3.758,5.411-4.814,6.737  c-0.016-0.065-0.032-0.131-0.047-0.195C13.486,50.084,15.44,46.846,17.529,44.991z M18.289,35.47  c-3.104,2.374-5.139,4.019-6.539,4.979c0.005-0.071,0.008-0.143,0.013-0.213C13,39.071,15.781,36.608,18.289,35.47z M21.631,27.377  c-3.798,1.483-6.259,2.527-7.868,3.042c0.018-0.052,0.037-0.102,0.054-0.153C15.194,29.547,18.762,27.798,21.631,27.377z   M26.003,20.802c-3.785,0.453-6.311,0.825-7.961,0.936c0.038-0.057,0.075-0.114,0.113-0.171  C19.766,21.204,23.33,20.513,26.003,20.802z M28.013,11.004c-3.152,2.148-5.222,3.644-6.636,4.503l-0.104-0.098  C22.463,14.396,25.419,12.014,28.013,11.004z M16.67,12.628c0.653,3.148,0.034,7.696-0.1,8.597c-0.01,0.016-0.021,0.032-0.032,0.049  C16.423,19.666,16.573,16.963,16.67,12.628z M10.265,21.659c1.334,2.71,1.912,6.86,2.075,8.252c-0.019,0.053-0.035,0.106-0.053,0.16  C11.78,28.475,11.238,25.801,10.265,21.659z M5.782,33.122c2.3,2.527,4.178,7.093,4.431,7.723c-0.001,0.009-0.001,0.02-0.002,0.029  C9.268,39.524,7.984,37.046,5.782,33.122z M4.888,46.442c2.808,1.656,5.797,5.196,6.438,5.976c0.006,0.023,0.012,0.047,0.018,0.07  C10.043,51.462,8.097,49.49,4.888,46.442z M7.776,58.794c2.749,0.62,6.058,2.54,7.453,3.401c0.04,0.071,0.078,0.142,0.117,0.213  C13.781,61.769,11.417,60.547,7.776,58.794z M13.418,69.741c3.105-0.052,7.207,1.215,8.642,1.695  c0.042,0.044,0.085,0.087,0.127,0.13C20.456,71.329,17.709,70.656,13.418,69.741z M21.513,79.018c3.97-0.774,9.885,0.26,9.885,0.26  C29.598,79.402,26.518,79.19,21.513,79.018z M38.562,74.599c1.829,4.152,3.06,6.718,3.603,8.334  c-0.017-0.007-0.034-0.013-0.052-0.02C41.593,82.042,39.19,77.902,38.562,74.599z M30.87,68.593  c0.467,4.354,0.858,7.236,0.953,9.099c-0.058-0.039-0.116-0.076-0.174-0.115C31.269,75.811,30.499,71.672,30.87,68.593z   M33.185,86.523c2.435-1.331,6.076-2.091,7.84-2.4c0.092,0.036,0.187,0.072,0.279,0.106C39.65,84.786,37.044,85.441,33.185,86.523z   M78.487,79.018c-5.006,0.173-8.086,0.385-9.886,0.26C68.602,79.277,74.517,78.243,78.487,79.018z M69.13,68.593  c0.371,3.079-0.398,7.218-0.778,8.983c-0.059,0.039-0.117,0.076-0.174,0.115C68.272,75.829,68.663,72.946,69.13,68.593z   M61.438,74.599c-0.628,3.304-3.03,7.443-3.551,8.314c-0.018,0.007-0.035,0.013-0.052,0.02  C58.378,81.316,59.608,78.751,61.438,74.599z M66.814,86.523c-3.858-1.082-6.465-1.737-8.118-2.294  c0.092-0.034,0.187-0.07,0.278-0.106C60.738,84.433,64.38,85.192,66.814,86.523z M95.112,46.442  c-3.209,3.048-5.155,5.02-6.455,6.046c0.005-0.023,0.011-0.047,0.018-0.07C89.314,51.64,92.304,48.098,95.112,46.442z   M94.218,33.122c-2.202,3.925-3.485,6.403-4.429,7.752c0-0.01-0.001-0.02-0.001-0.029C90.04,40.215,91.919,35.649,94.218,33.122z   M89.736,21.659c-0.975,4.142-1.517,6.816-2.022,8.412c-0.019-0.053-0.035-0.107-0.054-0.16  C87.823,28.517,88.4,24.369,89.736,21.659z M83.33,12.628c0.098,4.335,0.247,7.038,0.132,8.646  c-0.011-0.017-0.021-0.033-0.032-0.049C83.295,20.322,82.678,15.776,83.33,12.628z M71.986,11.004c2.594,1.01,5.55,3.393,6.74,4.405  l-0.104,0.099C77.209,14.647,75.139,13.152,71.986,11.004z M73.997,20.802c2.674-0.289,6.236,0.402,7.849,0.765  c0.038,0.057,0.074,0.115,0.112,0.171C80.308,21.627,77.782,21.255,73.997,20.802z M78.368,27.377  c2.87,0.421,6.437,2.169,7.813,2.889c0.019,0.051,0.037,0.101,0.055,0.153C84.628,29.904,82.167,28.861,78.368,27.377z   M81.712,35.47c2.507,1.138,5.288,3.601,6.524,4.765c0.006,0.071,0.009,0.143,0.013,0.214C86.851,39.489,84.815,37.843,81.712,35.47  z M82.472,44.991c2.088,1.854,4.042,5.093,4.859,6.541c-0.016,0.065-0.031,0.131-0.046,0.196  C86.229,50.402,84.762,48.214,82.472,44.991z M80.633,53.545c1.555,2.631,2.449,6.789,2.706,8.117  c-0.019,0.032-0.038,0.064-0.058,0.099C82.656,60.205,81.913,57.586,80.633,53.545z M76.891,70.348  c-0.032,0.034-0.066,0.068-0.1,0.103c-0.24-1.735-0.351-4.544-0.647-8.873C77.047,64.545,76.957,68.83,76.891,70.348z   M86.582,69.741c-4.292,0.915-7.037,1.588-8.769,1.825c0.042-0.043,0.085-0.087,0.127-0.13  C79.377,70.956,83.477,69.689,86.582,69.741z M92.224,58.794c-3.641,1.753-6.005,2.975-7.569,3.614  c0.039-0.071,0.077-0.142,0.117-0.213C86.166,61.334,89.475,59.414,92.224,58.794z"/></svg>
